<svg width="24" height="24" viewBox="0 0 24 24" fill="none" xmlns="http://www.w3.org/2000/svg">
<g clip-path="url(#clip0_2_90)">
<path d="M7.63281 19V8.87947H4.20251V19H7.63281ZM5.9181 7.49686C7.11431 7.49686 7.85889 6.71972 7.85889 5.74856C7.8366 4.7555 7.11436 3.99994 5.9408 3.99994C4.76743 3.99994 4.00012 4.75552 4.00012 5.74856C4.00012 6.71977 4.74452 7.49686 5.89571 7.49686H5.918H5.9181ZM9.53147 19H12.9618V13.3482C12.9618 13.0457 12.9841 12.7435 13.0746 12.5273C13.3226 11.923 13.8871 11.2971 14.8346 11.2971C16.0759 11.2971 16.5725 12.2251 16.5725 13.5856V18.9999H20.0026V13.1969C20.0026 10.0883 18.3103 8.64187 16.0533 8.64187C14.2028 8.64187 13.3903 9.6562 12.939 10.3471H12.9619V8.87926H9.53155C9.57657 9.82891 9.53155 18.9997 9.53155 18.9997L9.53147 19Z" fill="white"/>
</g>
<defs>
<clipPath id="clip0_2_90">
<rect width="16" height="15" fill="white" transform="translate(4.00012 4)"/>
</clipPath>
</defs>
</svg>
