<svg width="24" height="24" viewBox="0 0 24 24" fill="none" xmlns="http://www.w3.org/2000/svg">
<g clip-path="url(#clip0_2_86)">
<path d="M12.0037 7.95702C9.73225 7.95702 7.90011 9.76053 7.90011 11.9965C7.90011 14.2324 9.73225 16.0359 12.0037 16.0359C14.2751 16.0359 16.1073 14.2324 16.1073 11.9965C16.1073 9.76053 14.2751 7.95702 12.0037 7.95702ZM12.0037 14.6226C10.5358 14.6226 9.33583 13.4449 9.33583 11.9965C9.33583 10.548 10.5323 9.3703 12.0037 9.3703C13.4751 9.3703 14.6715 10.548 14.6715 11.9965C14.6715 13.4449 13.4715 14.6226 12.0037 14.6226ZM17.2322 7.79178C17.2322 8.31561 16.8037 8.73397 16.2751 8.73397C15.743 8.73397 15.318 8.31209 15.318 7.79178C15.318 7.27147 15.7465 6.8496 16.2751 6.8496C16.8037 6.8496 17.2322 7.27147 17.2322 7.79178ZM19.9501 8.74803C19.8894 7.48592 19.5965 6.36796 18.6572 5.44686C17.7215 4.52577 16.5858 4.23749 15.3037 4.17421C13.9823 4.10038 10.0215 4.10038 8.70011 4.17421C7.42154 4.23397 6.28583 4.52225 5.34654 5.44335C4.40726 6.36444 4.11797 7.48241 4.05369 8.74452C3.97869 10.0453 3.97869 13.9441 4.05369 15.2449C4.1144 16.507 4.40726 17.625 5.34654 18.5461C6.28583 19.4672 7.41797 19.7554 8.70011 19.8187C10.0215 19.8926 13.9823 19.8926 15.3037 19.8187C16.5858 19.759 17.7215 19.4707 18.6572 18.5461C19.593 17.625 19.8858 16.507 19.9501 15.2449C20.0251 13.9441 20.0251 10.0488 19.9501 8.74803ZM18.243 16.6406C17.9644 17.3297 17.4251 17.8605 16.7215 18.1383C15.668 18.5496 13.168 18.4547 12.0037 18.4547C10.8394 18.4547 8.33583 18.5461 7.28583 18.1383C6.58583 17.864 6.04654 17.3332 5.7644 16.6406C5.34654 15.6035 5.44297 13.1426 5.44297 11.9965C5.44297 10.8504 5.35011 8.38592 5.7644 7.35233C6.04297 6.66327 6.58226 6.13241 7.28583 5.85467C8.3394 5.44335 10.8394 5.53827 12.0037 5.53827C13.168 5.53827 15.6715 5.44686 16.7215 5.85467C17.4215 6.12889 17.9608 6.65975 18.243 7.35233C18.6608 8.38944 18.5644 10.8504 18.5644 11.9965C18.5644 13.1426 18.6608 15.607 18.243 16.6406Z" fill="white"/>
</g>
<defs>
<clipPath id="clip0_2_86">
<rect width="16" height="18" fill="white" transform="translate(4.00012 3)"/>
</clipPath>
</defs>
</svg>
